<?xml version="1.0" encoding="UTF-8" standalone="no"?>
<!-- Created with Inkscape (http://www.inkscape.org/) -->

<svg
   width="76.275009mm"
   height="50.750149mm"
   viewBox="0 0 76.275009 50.750149"
   version="1.1"
   id="svg745"
   inkscape:version="1.3 (0e150ed6c4, 2023-07-21)"
   sodipodi:docname="img_01.svg"
   xmlns:inkscape="http://www.inkscape.org/namespaces/inkscape"
   xmlns:sodipodi="http://sodipodi.sourceforge.net/DTD/sodipodi-0.dtd"
   xmlns="http://www.w3.org/2000/svg"
   xmlns:svg="http://www.w3.org/2000/svg">
  <sodipodi:namedview
     id="namedview747"
     pagecolor="#ffffff"
     bordercolor="#000000"
     borderopacity="1"
     inkscape:showpageshadow="true"
     inkscape:pageopacity="0"
     inkscape:pagecheckerboard="false"
     inkscape:deskcolor="#b4b4b4"
     inkscape:document-units="mm"
     showgrid="false"
     inkscape:current-layer="layer1" />
  <defs
     id="defs742" />
  <g
     inkscape:label="Vrstva 1"
     inkscape:groupmode="layer"
     id="layer1"
     transform="translate(-19.500002,-49.749999)">
    <rect
       style="font-variation-settings:normal;opacity:1;fill:none;fill-opacity:1;fill-rule:evenodd;stroke:#000000;stroke-width:0.5;stroke-linecap:round;stroke-linejoin:round;stroke-miterlimit:4;stroke-dasharray:1.5, 1.5;stroke-dashoffset:0;stroke-opacity:1;stop-color:#000000;stop-opacity:1"
       id="rect2"
       width="40.000137"
       height="40.000141"
       x="20"
       y="50" />
    <path
       style="font-variation-settings:normal;opacity:1;vector-effect:none;fill:#757575;fill-opacity:0.16;stroke:#757575;stroke-width:1;stroke-linecap:round;stroke-linejoin:round;stroke-miterlimit:4;stroke-dasharray:none;stroke-dashoffset:0;stroke-opacity:1;-inkscape-stroke:none;stop-color:#000000;stop-opacity:1"
       d="m 20.000001,90.000144 11.385627,-17.981011 12.61466,-6.42413 15.999853,16.702742 v 7.702399 z"
       id="path5"
       sodipodi:nodetypes="cccccc" />
    <path
       d="m 66.780001,55.775728 q -0.21,0 -0.378,-0.051 -0.168,-0.054 -0.321,-0.186 -0.039,-0.033 -0.06,-0.075 -0.021,-0.042 -0.021,-0.084 0,-0.069 0.048,-0.12 0.051,-0.054 0.126,-0.054 0.057,0 0.102,0.036 0.114,0.093 0.225,0.141 0.114,0.048 0.279,0.048 0.111,0 0.204,-0.033 0.093,-0.036 0.15,-0.093 0.057,-0.06 0.057,-0.135 0,-0.09 -0.054,-0.153 -0.054,-0.063 -0.165,-0.105 -0.111,-0.045 -0.282,-0.069 -0.162,-0.024 -0.285,-0.072 -0.123,-0.051 -0.207,-0.126 -0.081,-0.078 -0.123,-0.18 -0.042,-0.105 -0.042,-0.234 0,-0.195 0.099,-0.333 0.102,-0.138 0.273,-0.21 0.171,-0.072 0.378,-0.072 0.195,0 0.36,0.06 0.168,0.057 0.273,0.147 0.087,0.069 0.087,0.159 0,0.066 -0.051,0.12 -0.051,0.054 -0.12,0.054 -0.045,0 -0.081,-0.027 -0.048,-0.042 -0.129,-0.078 -0.081,-0.039 -0.171,-0.063 -0.09,-0.027 -0.168,-0.027 -0.129,0 -0.219,0.033 -0.087,0.033 -0.132,0.09 -0.045,0.057 -0.045,0.132 0,0.09 0.051,0.15 0.054,0.057 0.153,0.093 0.099,0.033 0.237,0.06 0.18,0.033 0.315,0.078 0.138,0.045 0.228,0.117 0.09,0.069 0.135,0.177 0.045,0.105 0.045,0.258 0,0.195 -0.108,0.336 -0.108,0.141 -0.285,0.216 -0.174,0.075 -0.378,0.075 z m 1.842,0 q -0.255,0 -0.444,-0.105 -0.186,-0.108 -0.288,-0.291 -0.099,-0.183 -0.099,-0.414 0,-0.27 0.108,-0.459 0.111,-0.192 0.288,-0.294 0.177,-0.102 0.375,-0.102 0.153,0 0.288,0.063 0.138,0.063 0.243,0.174 0.105,0.108 0.165,0.252 0.063,0.144 0.063,0.306 -0.003,0.072 -0.057,0.117 -0.054,0.045 -0.126,0.045 h -1.146 l -0.09,-0.3 h 1.101 l -0.066,0.06 v -0.081 q -0.006,-0.087 -0.063,-0.156 -0.054,-0.069 -0.138,-0.108 -0.081,-0.042 -0.174,-0.042 -0.09,0 -0.168,0.024 -0.078,0.024 -0.135,0.081 -0.057,0.057 -0.09,0.153 -0.033,0.096 -0.033,0.243 0,0.162 0.066,0.276 0.069,0.111 0.174,0.171 0.108,0.057 0.228,0.057 0.111,0 0.177,-0.018 0.066,-0.018 0.105,-0.042 0.042,-0.027 0.075,-0.045 0.054,-0.027 0.102,-0.027 0.066,0 0.108,0.045 0.045,0.045 0.045,0.105 0,0.081 -0.084,0.147 -0.078,0.066 -0.219,0.117 -0.141,0.048 -0.291,0.048 z m 1.404001,-0.213 q 0,0.078 -0.054,0.132 -0.051,0.051 -0.129,0.051 -0.075,0 -0.126,-0.051 -0.051,-0.054 -0.051,-0.132 v -1.854 q 0,-0.078 0.051,-0.129 0.054,-0.054 0.132,-0.054 0.078,0 0.126,0.054 0.051,0.051 0.051,0.129 z m 1.146001,0.213 q -0.255,0 -0.444,-0.105 -0.186,-0.108 -0.288,-0.291 -0.099,-0.183 -0.099,-0.414 0,-0.27 0.108,-0.459 0.111,-0.192 0.288,-0.294 0.177,-0.102 0.375,-0.102 0.153,0 0.288,0.063 0.138,0.063 0.243,0.174 0.105,0.108 0.165,0.252 0.063,0.144 0.063,0.306 -0.003,0.072 -0.057,0.117 -0.054,0.045 -0.126,0.045 h -1.146 l -0.09,-0.3 h 1.101 l -0.066,0.06 v -0.081 q -0.006,-0.087 -0.063,-0.156 -0.054,-0.069 -0.138,-0.108 -0.081,-0.042 -0.174,-0.042 -0.09,0 -0.168,0.024 -0.078,0.024 -0.135,0.081 -0.057,0.057 -0.09,0.153 -0.033,0.096 -0.033,0.243 0,0.162 0.066,0.276 0.069,0.111 0.174,0.171 0.108,0.057 0.228,0.057 0.111,0 0.177,-0.018 0.066,-0.018 0.105,-0.042 0.042,-0.027 0.075,-0.045 0.054,-0.027 0.102,-0.027 0.066,0 0.108,0.045 0.045,0.045 0.045,0.105 0,0.081 -0.084,0.147 -0.078,0.066 -0.219,0.117 -0.141,0.048 -0.291,0.048 z m 1.728,-1.665 q 0.171,0 0.297,0.036 0.129,0.036 0.198,0.102 0.072,0.063 0.072,0.153 0,0.06 -0.036,0.114 -0.036,0.051 -0.105,0.051 -0.048,0 -0.081,-0.012 -0.03,-0.015 -0.054,-0.036 -0.024,-0.021 -0.057,-0.039 -0.03,-0.018 -0.093,-0.027 -0.06,-0.012 -0.09,-0.012 -0.153,0 -0.261,0.066 -0.105,0.066 -0.162,0.18 -0.057,0.111 -0.057,0.258 0,0.144 0.057,0.258 0.06,0.111 0.162,0.177 0.105,0.066 0.24,0.066 0.075,0 0.129,-0.009 0.054,-0.009 0.09,-0.027 0.042,-0.024 0.075,-0.051 0.033,-0.027 0.099,-0.027 0.078,0 0.12,0.051 0.042,0.048 0.042,0.12 0,0.075 -0.084,0.138 -0.084,0.06 -0.222,0.099 -0.135,0.036 -0.294,0.036 -0.237,0 -0.411,-0.108 -0.174,-0.111 -0.27,-0.3 -0.093,-0.189 -0.093,-0.423 0,-0.246 0.099,-0.432 0.102,-0.189 0.279,-0.294 0.18,-0.108 0.411,-0.108 z m 0.864001,0.06 h 0.711 q 0.072,0 0.12,0.048 0.048,0.048 0.048,0.12 0,0.069 -0.048,0.117 -0.048,0.045 -0.12,0.045 h -0.711 q -0.072,0 -0.12,-0.048 -0.048,-0.048 -0.048,-0.12 0,-0.069 0.048,-0.114 0.048,-0.048 0.12,-0.048 z m 0.321,-0.375 q 0.078,0 0.126,0.054 0.051,0.051 0.051,0.129 v 1.335 q 0,0.042 0.015,0.069 0.018,0.027 0.045,0.039 0.03,0.012 0.063,0.012 0.036,0 0.066,-0.012 0.03,-0.015 0.069,-0.015 0.042,0 0.075,0.039 0.036,0.039 0.036,0.108 0,0.084 -0.093,0.138 -0.09,0.054 -0.195,0.054 -0.063,0 -0.141,-0.009 -0.075,-0.012 -0.144,-0.051 -0.066,-0.042 -0.111,-0.126 -0.045,-0.084 -0.045,-0.231 v -1.35 q 0,-0.078 0.051,-0.129 0.054,-0.054 0.132,-0.054 z m 2.553004,-0.27 q 0.066,0 0.129,0.018 0.063,0.018 0.105,0.06 0.042,0.039 0.042,0.105 0,0.075 -0.045,0.12 -0.042,0.042 -0.099,0.042 -0.027,0 -0.081,-0.012 -0.054,-0.015 -0.105,-0.015 -0.075,0 -0.117,0.033 -0.039,0.033 -0.054,0.078 -0.015,0.042 -0.015,0.075 v 1.533 q 0,0.078 -0.051,0.132 -0.051,0.051 -0.129,0.051 -0.078,0 -0.129,-0.051 -0.051,-0.054 -0.051,-0.132 v -1.53 q 0,-0.213 0.15,-0.36 0.15,-0.147 0.45,-0.147 z m 0.033,0.645 q 0.072,0 0.12,0.048 0.048,0.045 0.048,0.117 0,0.072 -0.048,0.12 -0.048,0.045 -0.12,0.045 h -0.795 q -0.072,0 -0.12,-0.045 -0.048,-0.048 -0.048,-0.12 0,-0.072 0.048,-0.117 0.048,-0.048 0.12,-0.048 z m 1.118998,1.605 q -0.255,0 -0.444,-0.105 -0.186,-0.108 -0.288,-0.291 -0.099,-0.183 -0.099,-0.414 0,-0.27 0.108,-0.459 0.111,-0.192 0.288,-0.294 0.177,-0.102 0.375,-0.102 0.153,0 0.288,0.063 0.138,0.063 0.243,0.174 0.105,0.108 0.165,0.252 0.063,0.144 0.063,0.306 -0.003,0.072 -0.057,0.117 -0.054,0.045 -0.126,0.045 h -1.146 l -0.09,-0.3 h 1.101 l -0.066,0.06 v -0.081 q -0.006,-0.087 -0.063,-0.156 -0.054,-0.069 -0.138,-0.108 -0.081,-0.042 -0.174,-0.042 -0.09,0 -0.168,0.024 -0.078,0.024 -0.135,0.081 -0.057,0.057 -0.09,0.153 -0.033,0.096 -0.033,0.243 0,0.162 0.066,0.276 0.069,0.111 0.174,0.171 0.108,0.057 0.228,0.057 0.111,0 0.177,-0.018 0.066,-0.018 0.105,-0.042 0.042,-0.027 0.075,-0.045 0.054,-0.027 0.102,-0.027 0.066,0 0.108,0.045 0.045,0.045 0.045,0.105 0,0.081 -0.084,0.147 -0.078,0.066 -0.219,0.117 -0.141,0.048 -0.291,0.048 z m 2.34,-1.665 q 0.078,0 0.129,0.051 0.051,0.051 0.051,0.132 v 1.269 q 0,0.078 -0.051,0.132 -0.051,0.051 -0.129,0.051 -0.078,0 -0.129,-0.051 -0.051,-0.054 -0.051,-0.132 v -0.147 l 0.066,0.027 q 0,0.039 -0.042,0.096 -0.042,0.054 -0.114,0.108 -0.072,0.054 -0.171,0.093 -0.096,0.036 -0.21,0.036 -0.207,0 -0.375,-0.105 -0.168,-0.108 -0.267,-0.294 -0.096,-0.189 -0.096,-0.432 0,-0.246 0.096,-0.432 0.099,-0.189 0.264,-0.294 0.165,-0.108 0.366,-0.108 0.129,0 0.237,0.039 0.108,0.039 0.186,0.099 0.081,0.06 0.123,0.123 0.045,0.06 0.045,0.102 l -0.108,0.039 v -0.219 q 0,-0.078 0.051,-0.129 0.051,-0.054 0.129,-0.054 z m -0.606,1.335 q 0.132,0 0.231,-0.066 0.099,-0.066 0.153,-0.18 0.057,-0.114 0.057,-0.255 0,-0.144 -0.057,-0.258 -0.054,-0.114 -0.153,-0.18 -0.099,-0.066 -0.231,-0.066 -0.129,0 -0.228,0.066 -0.099,0.066 -0.156,0.18 -0.054,0.114 -0.054,0.258 0,0.141 0.054,0.255 0.057,0.114 0.156,0.18 0.099,0.066 0.228,0.066 z m 1.194001,-1.275 h 0.711 q 0.072,0 0.12,0.048 0.048,0.048 0.048,0.12 0,0.069 -0.048,0.117 -0.048,0.045 -0.12,0.045 h -0.711 q -0.072,0 -0.12,-0.048 -0.048,-0.048 -0.048,-0.12 0,-0.069 0.048,-0.114 0.048,-0.048 0.12,-0.048 z m 0.321,-0.375 q 0.078,0 0.126,0.054 0.051,0.051 0.051,0.129 v 1.335 q 0,0.042 0.015,0.069 0.018,0.027 0.045,0.039 0.03,0.012 0.063,0.012 0.036,0 0.066,-0.012 0.03,-0.015 0.069,-0.015 0.042,0 0.075,0.039 0.036,0.039 0.036,0.108 0,0.084 -0.093,0.138 -0.09,0.054 -0.195,0.054 -0.063,0 -0.141,-0.009 -0.075,-0.012 -0.144,-0.051 -0.066,-0.042 -0.111,-0.126 -0.045,-0.084 -0.045,-0.231 v -1.35 q 0,-0.078 0.051,-0.129 0.054,-0.054 0.132,-0.054 z m 2.079001,0.345 q 0.078,0 0.129,0.054 0.051,0.051 0.051,0.129 v 0.762 q 0,0.318 -0.177,0.504 -0.177,0.186 -0.51,0.186 -0.333,0 -0.51,-0.186 -0.174,-0.186 -0.174,-0.504 v -0.762 q 0,-0.078 0.051,-0.129 0.051,-0.054 0.129,-0.054 0.078,0 0.129,0.054 0.051,0.051 0.051,0.129 v 0.762 q 0,0.183 0.081,0.273 0.081,0.087 0.243,0.087 0.165,0 0.246,-0.087 0.081,-0.09 0.081,-0.273 v -0.762 q 0,-0.078 0.051,-0.129 0.051,-0.054 0.129,-0.054 z m 0.75,1.605 q -0.078,0 -0.129,-0.051 -0.051,-0.054 -0.051,-0.132 v -1.239 q 0,-0.078 0.051,-0.129 0.051,-0.054 0.129,-0.054 0.078,0 0.129,0.054 0.051,0.051 0.051,0.129 v 0.282 l -0.021,-0.201 q 0.033,-0.072 0.084,-0.126 0.054,-0.057 0.12,-0.093 0.066,-0.039 0.141,-0.057 0.075,-0.018 0.15,-0.018 0.09,0 0.15,0.051 0.063,0.051 0.063,0.12 0,0.099 -0.051,0.144 -0.051,0.042 -0.111,0.042 -0.057,0 -0.105,-0.021 -0.045,-0.021 -0.105,-0.021 -0.054,0 -0.111,0.027 -0.054,0.024 -0.102,0.078 -0.045,0.054 -0.075,0.135 -0.027,0.078 -0.027,0.186 v 0.711 q 0,0.078 -0.051,0.132 -0.051,0.051 -0.129,0.051 z m 1.812002,0.03 q -0.255,0 -0.444,-0.105 -0.186,-0.108 -0.288,-0.291 -0.099,-0.183 -0.099,-0.414 0,-0.27 0.108,-0.459 0.111,-0.192 0.288,-0.294 0.177,-0.102 0.375,-0.102 0.153,0 0.288,0.063 0.138,0.063 0.243,0.174 0.105,0.108 0.165,0.252 0.063,0.144 0.063,0.306 -0.003,0.072 -0.057,0.117 -0.054,0.045 -0.126,0.045 h -1.146 l -0.09,-0.3 h 1.101 l -0.066,0.06 v -0.081 q -0.006,-0.087 -0.063,-0.156 -0.054,-0.069 -0.138,-0.108 -0.081,-0.042 -0.174,-0.042 -0.09,0 -0.168,0.024 -0.078,0.024 -0.135,0.081 -0.057,0.057 -0.09,0.153 -0.033,0.096 -0.033,0.243 0,0.162 0.066,0.276 0.069,0.111 0.174,0.171 0.108,0.057 0.228,0.057 0.111,0 0.177,-0.018 0.066,-0.018 0.105,-0.042 0.042,-0.027 0.075,-0.045 0.054,-0.027 0.102,-0.027 0.066,0 0.108,0.045 0.045,0.045 0.045,0.105 0,0.081 -0.084,0.147 -0.078,0.066 -0.219,0.117 -0.141,0.048 -0.291,0.048 z m 0.921,-0.279 q -0.03,-0.042 -0.027,-0.108 0.003,-0.066 0.078,-0.114 0.048,-0.03 0.102,-0.024 0.054,0.003 0.105,0.054 0.087,0.087 0.183,0.135 0.096,0.048 0.24,0.048 0.045,-0.003 0.099,-0.012 0.054,-0.012 0.093,-0.048 0.042,-0.039 0.042,-0.117 0,-0.066 -0.045,-0.105 -0.045,-0.039 -0.12,-0.066 -0.072,-0.027 -0.162,-0.051 -0.093,-0.027 -0.192,-0.06 -0.096,-0.033 -0.177,-0.084 -0.081,-0.054 -0.132,-0.141 -0.051,-0.087 -0.051,-0.219 0,-0.15 0.084,-0.255 0.084,-0.105 0.216,-0.162 0.135,-0.057 0.282,-0.057 0.093,0 0.195,0.024 0.102,0.021 0.195,0.072 0.093,0.048 0.156,0.129 0.033,0.045 0.039,0.108 0.006,0.063 -0.057,0.114 -0.045,0.036 -0.105,0.033 -0.06,-0.006 -0.099,-0.042 -0.051,-0.066 -0.138,-0.105 -0.084,-0.039 -0.195,-0.039 -0.045,0 -0.099,0.012 -0.051,0.009 -0.09,0.045 -0.039,0.033 -0.039,0.108 0,0.069 0.045,0.111 0.045,0.039 0.12,0.066 0.078,0.024 0.165,0.048 0.09,0.024 0.183,0.057 0.093,0.033 0.171,0.087 0.078,0.054 0.126,0.141 0.048,0.084 0.048,0.216 0,0.153 -0.09,0.261 -0.09,0.108 -0.225,0.165 -0.135,0.054 -0.276,0.054 -0.177,0 -0.354,-0.06 -0.177,-0.063 -0.294,-0.219 z m 3.204003,-1.971 q 0.066,0 0.129,0.018 0.063,0.018 0.105,0.06 0.042,0.039 0.042,0.105 0,0.075 -0.045,0.12 -0.042,0.042 -0.099,0.042 -0.027,0 -0.081,-0.012 -0.054,-0.015 -0.105,-0.015 -0.075,0 -0.117,0.033 -0.039,0.033 -0.054,0.078 -0.015,0.042 -0.015,0.075 v 1.533 q 0,0.078 -0.051,0.132 -0.051,0.051 -0.129,0.051 -0.078,0 -0.129,-0.051 -0.051,-0.054 -0.051,-0.132 v -1.53 q 0,-0.213 0.15,-0.36 0.15,-0.147 0.45,-0.147 z m 0.033,0.645 q 0.072,0 0.12,0.048 0.048,0.045 0.048,0.117 0,0.072 -0.048,0.12 -0.048,0.045 -0.12,0.045 h -0.795 q -0.072,0 -0.12,-0.045 -0.048,-0.048 -0.048,-0.12 0,-0.072 0.048,-0.117 0.048,-0.048 0.12,-0.048 z m 0.633001,1.575 q -0.078,0 -0.129,-0.051 -0.051,-0.054 -0.051,-0.132 v -1.239 q 0,-0.078 0.051,-0.129 0.051,-0.054 0.129,-0.054 0.078,0 0.129,0.054 0.051,0.051 0.051,0.129 v 0.282 l -0.021,-0.201 q 0.033,-0.072 0.084,-0.126 0.054,-0.057 0.12,-0.093 0.066,-0.039 0.141,-0.057 0.075,-0.018 0.15,-0.018 0.09,0 0.15,0.051 0.063,0.051 0.063,0.12 0,0.099 -0.051,0.144 -0.051,0.042 -0.111,0.042 -0.057,0 -0.105,-0.021 -0.045,-0.021 -0.105,-0.021 -0.054,0 -0.111,0.027 -0.054,0.024 -0.102,0.078 -0.045,0.054 -0.075,0.135 -0.027,0.078 -0.027,0.186 v 0.711 q 0,0.078 -0.051,0.132 -0.051,0.051 -0.129,0.051 z m 2.613002,-0.801 q 0,0.246 -0.111,0.435 -0.108,0.186 -0.294,0.291 -0.183,0.105 -0.411,0.105 -0.228,0 -0.414,-0.105 -0.183,-0.105 -0.294,-0.291 -0.108,-0.189 -0.108,-0.435 0,-0.246 0.108,-0.432 0.111,-0.189 0.294,-0.294 0.186,-0.108 0.414,-0.108 0.228,0 0.411,0.108 0.186,0.105 0.294,0.294 0.111,0.186 0.111,0.432 z m -0.36,0 q 0,-0.153 -0.063,-0.264 -0.06,-0.114 -0.165,-0.177 -0.102,-0.063 -0.228,-0.063 -0.126,0 -0.231,0.063 -0.102,0.063 -0.165,0.177 -0.06,0.111 -0.06,0.264 0,0.15 0.06,0.264 0.063,0.111 0.165,0.174 0.105,0.063 0.231,0.063 0.126,0 0.228,-0.063 0.105,-0.063 0.165,-0.174 0.063,-0.114 0.063,-0.264 z m 1.518002,-0.834 q 0.24,0 0.354,0.117 0.114,0.114 0.15,0.297 l -0.051,-0.027 0.024,-0.048 q 0.036,-0.069 0.111,-0.147 0.075,-0.081 0.18,-0.135 0.108,-0.057 0.24,-0.057 0.216,0 0.327,0.093 0.114,0.093 0.156,0.249 0.042,0.153 0.042,0.342 v 0.768 q 0,0.078 -0.051,0.132 -0.051,0.051 -0.129,0.051 -0.078,0 -0.129,-0.051 -0.051,-0.054 -0.051,-0.132 v -0.768 q 0,-0.099 -0.024,-0.177 -0.024,-0.081 -0.087,-0.129 -0.063,-0.048 -0.18,-0.048 -0.114,0 -0.195,0.048 -0.081,0.048 -0.123,0.129 -0.039,0.078 -0.039,0.177 v 0.768 q 0,0.078 -0.051,0.132 -0.051,0.051 -0.129,0.051 -0.078,0 -0.129,-0.051 -0.051,-0.054 -0.051,-0.132 v -0.768 q 0,-0.099 -0.024,-0.177 -0.024,-0.081 -0.087,-0.129 -0.063,-0.048 -0.18,-0.048 -0.114,0 -0.195,0.048 -0.081,0.048 -0.123,0.129 -0.039,0.078 -0.039,0.177 v 0.768 q 0,0.078 -0.051,0.132 -0.051,0.051 -0.129,0.051 -0.078,0 -0.129,-0.051 -0.051,-0.054 -0.051,-0.132 v -1.239 q 0,-0.078 0.051,-0.129 0.051,-0.054 0.129,-0.054 0.078,0 0.129,0.054 0.051,0.051 0.051,0.129 v 0.129 l -0.045,-0.009 q 0.027,-0.051 0.075,-0.108 0.048,-0.06 0.117,-0.111 0.069,-0.051 0.153,-0.081 0.084,-0.033 0.183,-0.033 z"
       id="text7"
       style="font-weight:bold;font-size:3px;line-height:1.25;font-family:Quicksand;-inkscape-font-specification:'Quicksand Bold';font-variant-ligatures:none;text-align:center;text-anchor:middle;stroke-width:0.264583"
       aria-label="Select features from" />
    <path
       style="font-weight:bold;font-size:3px;line-height:1.25;font-family:Quicksand;-inkscape-font-specification:'Quicksand Bold';font-variant-ligatures:none;text-align:center;baseline-shift:baseline;text-anchor:middle;stroke-width:0.264583"
       d="m 69.388502,76.100391 q 0.069,0 0.12,0.054 0.051,0.051 0.051,0.132 0,0.021 -0.003,0.039 -0.003,0.015 -0.009,0.03 l -0.459,1.236 q -0.021,0.06 -0.075,0.093 -0.054,0.03 -0.114,0.021 -0.102,-0.006 -0.153,-0.114 l -0.297,-0.855 0.078,0.003 -0.279,0.852 q -0.051,0.108 -0.153,0.114 -0.057,0.009 -0.114,-0.021 -0.054,-0.033 -0.075,-0.093 l -0.459,-1.236 q -0.012,-0.033 -0.012,-0.069 0,-0.072 0.048,-0.129 0.048,-0.057 0.132,-0.057 0.057,0 0.102,0.027 0.045,0.027 0.063,0.087 l 0.363,0.984 -0.075,-0.006 0.273,-0.741 q 0.048,-0.111 0.165,-0.111 0.066,0 0.099,0.03 0.036,0.027 0.057,0.081 l 0.273,0.741 -0.09,0.012 0.369,-0.99 q 0.036,-0.114 0.174,-0.114 z m 0.794999,1.422 q 0,0.078 -0.051,0.132 -0.051,0.051 -0.129,0.051 -0.078,0 -0.129,-0.051 -0.051,-0.054 -0.051,-0.132 v -1.239 q 0,-0.078 0.051,-0.129 0.051,-0.054 0.129,-0.054 0.078,0 0.129,0.054 0.051,0.051 0.051,0.129 z m -0.183,-1.617 q -0.102,0 -0.144,-0.033 -0.042,-0.033 -0.042,-0.117 v -0.057 q 0,-0.087 0.045,-0.117 0.048,-0.033 0.144,-0.033 0.105,0 0.147,0.033 0.042,0.033 0.042,0.117 v 0.057 q 0,0.087 -0.045,0.12 -0.045,0.03 -0.147,0.03 z m 0.57,0.225 h 0.711 q 0.072,0 0.12,0.048 0.048,0.048 0.048,0.12 0,0.069 -0.048,0.117 -0.048,0.045 -0.12,0.045 h -0.711 q -0.072,0 -0.12,-0.048 -0.048,-0.048 -0.048,-0.12 0,-0.069 0.048,-0.114 0.048,-0.048 0.12,-0.048 z m 0.321,-0.375 q 0.078,0 0.126,0.054 0.051,0.051 0.051,0.129 v 1.335 q 0,0.042 0.015,0.069 0.018,0.027 0.045,0.039 0.03,0.012 0.063,0.012 0.036,0 0.066,-0.012 0.03,-0.015 0.069,-0.015 0.042,0 0.075,0.039 0.036,0.039 0.036,0.108 0,0.084 -0.093,0.138 -0.09,0.054 -0.195,0.054 -0.063,0 -0.141,-0.009 -0.075,-0.012 -0.144,-0.051 -0.066,-0.042 -0.111,-0.126 -0.045,-0.084 -0.045,-0.231 v -1.35 q 0,-0.078 0.051,-0.129 0.054,-0.054 0.132,-0.054 z m 1.731001,0.315 q 0.216,0 0.327,0.093 0.114,0.093 0.156,0.249 0.042,0.153 0.042,0.342 v 0.768 q 0,0.078 -0.051,0.132 -0.051,0.051 -0.129,0.051 -0.078,0 -0.129,-0.051 -0.051,-0.054 -0.051,-0.132 v -0.768 q 0,-0.099 -0.024,-0.177 -0.024,-0.081 -0.087,-0.129 -0.063,-0.048 -0.18,-0.048 -0.114,0 -0.195,0.048 -0.081,0.048 -0.123,0.129 -0.039,0.078 -0.039,0.177 v 0.768 q 0,0.078 -0.051,0.132 -0.051,0.051 -0.129,0.051 -0.078,0 -0.129,-0.051 -0.051,-0.054 -0.051,-0.132 v -1.854 q 0,-0.078 0.051,-0.129 0.051,-0.054 0.129,-0.054 0.078,0 0.129,0.054 0.051,0.051 0.051,0.129 v 0.744 l -0.045,-0.009 q 0.027,-0.051 0.075,-0.108 0.048,-0.06 0.117,-0.111 0.069,-0.051 0.153,-0.081 0.084,-0.033 0.183,-0.033 z m 2.580004,-0.585 q 0.066,0 0.129,0.018 0.063,0.018 0.105,0.06 0.042,0.039 0.042,0.105 0,0.075 -0.045,0.12 -0.042,0.042 -0.099,0.042 -0.027,0 -0.081,-0.012 -0.054,-0.015 -0.105,-0.015 -0.075,0 -0.117,0.033 -0.039,0.033 -0.054,0.078 -0.015,0.042 -0.015,0.075 v 1.533 q 0,0.078 -0.051,0.132 -0.051,0.051 -0.129,0.051 -0.078,0 -0.129,-0.051 -0.051,-0.054 -0.051,-0.132 v -1.53 q 0,-0.213 0.15,-0.36 0.15,-0.147 0.45,-0.147 z m 0.033,0.645 q 0.072,0 0.12,0.048 0.048,0.045 0.048,0.117 0,0.072 -0.048,0.12 -0.048,0.045 -0.12,0.045 h -0.795 q -0.072,0 -0.12,-0.045 -0.048,-0.048 -0.048,-0.12 0,-0.072 0.048,-0.117 0.048,-0.048 0.12,-0.048 z m 1.118998,1.605 q -0.255,0 -0.444,-0.105 -0.186,-0.108 -0.288,-0.291 -0.099,-0.183 -0.099,-0.414 0,-0.27 0.108,-0.459 0.111,-0.192 0.288,-0.294 0.177,-0.102 0.375,-0.102 0.153,0 0.288,0.063 0.138,0.063 0.243,0.174 0.105,0.108 0.165,0.252 0.063,0.144 0.063,0.306 -0.003,0.072 -0.057,0.117 -0.054,0.045 -0.126,0.045 h -1.146 l -0.09,-0.3 h 1.101 l -0.066,0.06 v -0.081 q -0.006,-0.087 -0.063,-0.156 -0.054,-0.069 -0.138,-0.108 -0.081,-0.042 -0.174,-0.042 -0.09,0 -0.168,0.024 -0.078,0.024 -0.135,0.081 -0.057,0.057 -0.09,0.153 -0.033,0.096 -0.033,0.243 0,0.162 0.066,0.276 0.069,0.111 0.174,0.171 0.108,0.057 0.228,0.057 0.111,0 0.177,-0.018 0.066,-0.018 0.105,-0.042 0.042,-0.027 0.075,-0.045 0.054,-0.027 0.102,-0.027 0.066,0 0.108,0.045 0.045,0.045 0.045,0.105 0,0.081 -0.084,0.147 -0.078,0.066 -0.219,0.117 -0.141,0.048 -0.291,0.048 z m 2.34,-1.665 q 0.078,0 0.129,0.051 0.051,0.051 0.051,0.132 v 1.269 q 0,0.078 -0.051,0.132 -0.051,0.051 -0.129,0.051 -0.078,0 -0.129,-0.051 -0.051,-0.054 -0.051,-0.132 v -0.147 l 0.066,0.027 q 0,0.039 -0.042,0.096 -0.042,0.054 -0.114,0.108 -0.072,0.054 -0.171,0.093 -0.096,0.036 -0.21,0.036 -0.207,0 -0.375,-0.105 -0.168,-0.108 -0.267,-0.294 -0.096,-0.189 -0.096,-0.432 0,-0.246 0.096,-0.432 0.099,-0.189 0.264,-0.294 0.165,-0.108 0.366,-0.108 0.129,0 0.237,0.039 0.108,0.039 0.186,0.099 0.081,0.06 0.123,0.123 0.045,0.06 0.045,0.102 l -0.108,0.039 v -0.219 q 0,-0.078 0.051,-0.129 0.051,-0.054 0.129,-0.054 z m -0.606,1.335 q 0.132,0 0.231,-0.066 0.099,-0.066 0.153,-0.18 0.057,-0.114 0.057,-0.255 0,-0.144 -0.057,-0.258 -0.054,-0.114 -0.153,-0.18 -0.099,-0.066 -0.231,-0.066 -0.129,0 -0.228,0.066 -0.099,0.066 -0.156,0.18 -0.054,0.114 -0.054,0.258 0,0.141 0.054,0.255 0.057,0.114 0.156,0.18 0.099,0.066 0.228,0.066 z m 1.194001,-1.275 h 0.711 q 0.072,0 0.12,0.048 0.048,0.048 0.048,0.12 0,0.069 -0.048,0.117 -0.048,0.045 -0.12,0.045 h -0.711 q -0.072,0 -0.12,-0.048 -0.048,-0.048 -0.048,-0.12 0,-0.069 0.048,-0.114 0.048,-0.048 0.12,-0.048 z m 0.321,-0.375 q 0.078,0 0.126,0.054 0.051,0.051 0.051,0.129 v 1.335 q 0,0.042 0.015,0.069 0.018,0.027 0.045,0.039 0.03,0.012 0.063,0.012 0.036,0 0.066,-0.012 0.03,-0.015 0.069,-0.015 0.042,0 0.075,0.039 0.036,0.039 0.036,0.108 0,0.084 -0.093,0.138 -0.09,0.054 -0.195,0.054 -0.063,0 -0.141,-0.009 -0.075,-0.012 -0.144,-0.051 -0.066,-0.042 -0.111,-0.126 -0.045,-0.084 -0.045,-0.231 v -1.35 q 0,-0.078 0.051,-0.129 0.054,-0.054 0.132,-0.054 z m 2.079001,0.345 q 0.078,0 0.129,0.054 0.051,0.051 0.051,0.129 v 0.762 q 0,0.318 -0.177,0.504 -0.177,0.186 -0.51,0.186 -0.333,0 -0.51,-0.186 -0.174,-0.186 -0.174,-0.504 v -0.762 q 0,-0.078 0.051,-0.129 0.051,-0.054 0.129,-0.054 0.078,0 0.129,0.054 0.051,0.051 0.051,0.129 v 0.762 q 0,0.183 0.081,0.273 0.081,0.087 0.243,0.087 0.165,0 0.246,-0.087 0.081,-0.09 0.081,-0.273 v -0.762 q 0,-0.078 0.051,-0.129 0.051,-0.054 0.129,-0.054 z m 0.75,1.605 q -0.078,0 -0.129,-0.051 -0.051,-0.054 -0.051,-0.132 v -1.239 q 0,-0.078 0.051,-0.129 0.051,-0.054 0.129,-0.054 0.078,0 0.129,0.054 0.051,0.051 0.051,0.129 v 0.282 l -0.021,-0.201 q 0.033,-0.072 0.084,-0.126 0.054,-0.057 0.12,-0.093 0.066,-0.039 0.141,-0.057 0.075,-0.018 0.15,-0.018 0.09,0 0.15,0.051 0.063,0.051 0.063,0.12 0,0.099 -0.051,0.144 -0.051,0.042 -0.111,0.042 -0.057,0 -0.105,-0.021 -0.045,-0.021 -0.105,-0.021 -0.054,0 -0.111,0.027 -0.054,0.024 -0.102,0.078 -0.045,0.054 -0.075,0.135 -0.027,0.078 -0.027,0.186 v 0.711 q 0,0.078 -0.051,0.132 -0.051,0.051 -0.129,0.051 z m 1.812002,0.03 q -0.255,0 -0.444,-0.105 -0.186,-0.108 -0.288,-0.291 -0.099,-0.183 -0.099,-0.414 0,-0.27 0.108,-0.459 0.111,-0.192 0.288,-0.294 0.177,-0.102 0.375,-0.102 0.153,0 0.288,0.063 0.138,0.063 0.243,0.174 0.105,0.108 0.165,0.252 0.063,0.144 0.063,0.306 -0.003,0.072 -0.057,0.117 -0.054,0.045 -0.126,0.045 h -1.146 l -0.09,-0.3 h 1.101 l -0.066,0.06 v -0.081 q -0.006,-0.087 -0.063,-0.156 -0.054,-0.069 -0.138,-0.108 -0.081,-0.042 -0.174,-0.042 -0.09,0 -0.168,0.024 -0.078,0.024 -0.135,0.081 -0.057,0.057 -0.09,0.153 -0.033,0.096 -0.033,0.243 0,0.162 0.066,0.276 0.069,0.111 0.174,0.171 0.108,0.057 0.228,0.057 0.111,0 0.177,-0.018 0.066,-0.018 0.105,-0.042 0.042,-0.027 0.075,-0.045 0.054,-0.027 0.102,-0.027 0.066,0 0.108,0.045 0.045,0.045 0.045,0.105 0,0.081 -0.084,0.147 -0.078,0.066 -0.219,0.117 -0.141,0.048 -0.291,0.048 z m 0.921,-0.279 q -0.03,-0.042 -0.027,-0.108 0.003,-0.066 0.078,-0.114 0.048,-0.03 0.102,-0.024 0.054,0.003 0.105,0.054 0.087,0.087 0.183,0.135 0.096,0.048 0.24,0.048 0.045,-0.003 0.099,-0.012 0.054,-0.012 0.093,-0.048 0.042,-0.039 0.042,-0.117 0,-0.066 -0.045,-0.105 -0.045,-0.039 -0.12,-0.066 -0.072,-0.027 -0.162,-0.051 -0.093,-0.027 -0.192,-0.06 -0.096,-0.033 -0.177,-0.084 -0.081,-0.054 -0.132,-0.141 -0.051,-0.087 -0.051,-0.219 0,-0.15 0.084,-0.255 0.084,-0.105 0.216,-0.162 0.135,-0.057 0.282,-0.057 0.093,0 0.195,0.024 0.102,0.021 0.195,0.072 0.093,0.048 0.156,0.129 0.033,0.045 0.039,0.108 0.006,0.063 -0.057,0.114 -0.045,0.036 -0.105,0.033 -0.06,-0.006 -0.099,-0.042 -0.051,-0.066 -0.138,-0.105 -0.084,-0.039 -0.195,-0.039 -0.045,0 -0.099,0.012 -0.051,0.009 -0.09,0.045 -0.039,0.033 -0.039,0.108 0,0.069 0.045,0.111 0.045,0.039 0.12,0.066 0.078,0.024 0.165,0.048 0.09,0.024 0.183,0.057 0.093,0.033 0.171,0.087 0.078,0.054 0.126,0.141 0.048,0.084 0.048,0.216 0,0.153 -0.09,0.261 -0.09,0.108 -0.225,0.165 -0.135,0.054 -0.276,0.054 -0.177,0 -0.354,-0.06 -0.177,-0.063 -0.294,-0.219 z m 3.204003,-1.971 q 0.066,0 0.129,0.018 0.063,0.018 0.105,0.06 0.042,0.039 0.042,0.105 0,0.075 -0.045,0.12 -0.042,0.042 -0.099,0.042 -0.027,0 -0.081,-0.012 -0.054,-0.015 -0.105,-0.015 -0.075,0 -0.117,0.033 -0.039,0.033 -0.054,0.078 -0.015,0.042 -0.015,0.075 v 1.533 q 0,0.078 -0.051,0.132 -0.051,0.051 -0.129,0.051 -0.078,0 -0.129,-0.051 -0.051,-0.054 -0.051,-0.132 v -1.53 q 0,-0.213 0.15,-0.36 0.15,-0.147 0.45,-0.147 z m 0.033,0.645 q 0.072,0 0.12,0.048 0.048,0.045 0.048,0.117 0,0.072 -0.048,0.12 -0.048,0.045 -0.12,0.045 h -0.795 q -0.072,0 -0.12,-0.045 -0.048,-0.048 -0.048,-0.12 0,-0.072 0.048,-0.117 0.048,-0.048 0.12,-0.048 z m 0.633001,1.575 q -0.078,0 -0.129,-0.051 -0.051,-0.054 -0.051,-0.132 v -1.239 q 0,-0.078 0.051,-0.129 0.051,-0.054 0.129,-0.054 0.078,0 0.129,0.054 0.051,0.051 0.051,0.129 v 0.282 l -0.021,-0.201 q 0.033,-0.072 0.084,-0.126 0.054,-0.057 0.12,-0.093 0.066,-0.039 0.141,-0.057 0.075,-0.018 0.15,-0.018 0.09,0 0.15,0.051 0.063,0.051 0.063,0.12 0,0.099 -0.051,0.144 -0.051,0.042 -0.111,0.042 -0.057,0 -0.105,-0.021 -0.045,-0.021 -0.105,-0.021 -0.054,0 -0.111,0.027 -0.054,0.024 -0.102,0.078 -0.045,0.054 -0.075,0.135 -0.027,0.078 -0.027,0.186 v 0.711 q 0,0.078 -0.051,0.132 -0.051,0.051 -0.129,0.051 z m 2.613002,-0.801 q 0,0.246 -0.111,0.435 -0.108,0.186 -0.294,0.291 -0.183,0.105 -0.411,0.105 -0.228,0 -0.414,-0.105 -0.183,-0.105 -0.294,-0.291 -0.108,-0.189 -0.108,-0.435 0,-0.246 0.108,-0.432 0.111,-0.189 0.294,-0.294 0.186,-0.108 0.414,-0.108 0.228,0 0.411,0.108 0.186,0.105 0.294,0.294 0.111,0.186 0.111,0.432 z m -0.36,0 q 0,-0.153 -0.063,-0.264 -0.06,-0.114 -0.165,-0.177 -0.102,-0.063 -0.228,-0.063 -0.126,0 -0.231,0.063 -0.102,0.063 -0.165,0.177 -0.06,0.111 -0.06,0.264 0,0.15 0.06,0.264 0.063,0.111 0.165,0.174 0.105,0.063 0.231,0.063 0.126,0 0.228,-0.063 0.105,-0.063 0.165,-0.174 0.063,-0.114 0.063,-0.264 z m 1.518002,-0.834 q 0.24,0 0.354,0.117 0.114,0.114 0.15,0.297 l -0.051,-0.027 0.024,-0.048 q 0.036,-0.069 0.111,-0.147 0.075,-0.081 0.18,-0.135 0.108,-0.057 0.24,-0.057 0.216,0 0.327,0.093 0.114,0.093 0.156,0.249 0.042,0.153 0.042,0.342 v 0.768 q 0,0.078 -0.051,0.132 -0.051,0.051 -0.129,0.051 -0.078,0 -0.129,-0.051 -0.051,-0.054 -0.051,-0.132 v -0.768 q 0,-0.099 -0.024,-0.177 -0.024,-0.081 -0.087,-0.129 -0.063,-0.048 -0.18,-0.048 -0.114,0 -0.195,0.048 -0.081,0.048 -0.123,0.129 -0.039,0.078 -0.039,0.177 v 0.768 q 0,0.078 -0.051,0.132 -0.051,0.051 -0.129,0.051 -0.078,0 -0.129,-0.051 -0.051,-0.054 -0.051,-0.132 v -0.768 q 0,-0.099 -0.024,-0.177 -0.024,-0.081 -0.087,-0.129 -0.063,-0.048 -0.18,-0.048 -0.114,0 -0.195,0.048 -0.081,0.048 -0.123,0.129 -0.039,0.078 -0.039,0.177 v 0.768 q 0,0.078 -0.051,0.132 -0.051,0.051 -0.129,0.051 -0.078,0 -0.129,-0.051 -0.051,-0.054 -0.051,-0.132 v -1.239 q 0,-0.078 0.051,-0.129 0.051,-0.054 0.129,-0.054 0.078,0 0.129,0.054 0.051,0.051 0.051,0.129 v 0.129 l -0.045,-0.009 q 0.027,-0.051 0.075,-0.108 0.048,-0.06 0.117,-0.111 0.069,-0.051 0.153,-0.081 0.084,-0.033 0.183,-0.033 z"
       id="text7-0-5"
       aria-label="with features from" />
    <path
       style="font-weight:bold;font-size:3px;line-height:1.25;font-family:Quicksand;-inkscape-font-specification:'Quicksand Bold';font-variant-ligatures:none;text-align:center;baseline-shift:baseline;text-anchor:middle;stroke-width:0.264583"
       d="m 76.036507,67.619838 q 0.069,0 0.12,0.054 0.051,0.051 0.051,0.132 0,0.021 -0.003,0.039 -0.003,0.015 -0.009,0.03 l -0.459,1.236 q -0.021,0.06 -0.075,0.093 -0.054,0.03 -0.114,0.021 -0.102,-0.006 -0.153,-0.114 l -0.297,-0.855 0.078,0.003 -0.279,0.852 q -0.051,0.108 -0.153,0.114 -0.057,0.009 -0.114,-0.021 -0.054,-0.033 -0.075,-0.093 l -0.459,-1.236 q -0.012,-0.033 -0.012,-0.069 0,-0.072 0.048,-0.129 0.048,-0.057 0.132,-0.057 0.057,0 0.102,0.027 0.045,0.027 0.063,0.087 l 0.363,0.984 -0.075,-0.006 0.273,-0.741 q 0.048,-0.111 0.165,-0.111 0.066,0 0.099,0.03 0.036,0.027 0.057,0.081 l 0.273,0.741 -0.09,0.012 0.369,-0.99 q 0.036,-0.114 0.174,-0.114 z m 1.298999,-0.03 q 0.216,0 0.327,0.093 0.114,0.093 0.156,0.249 0.042,0.153 0.042,0.342 v 0.768 q 0,0.078 -0.051,0.132 -0.051,0.051 -0.129,0.051 -0.078,0 -0.129,-0.051 -0.051,-0.054 -0.051,-0.132 v -0.768 q 0,-0.099 -0.024,-0.177 -0.024,-0.081 -0.087,-0.129 -0.063,-0.048 -0.18,-0.048 -0.114,0 -0.195,0.048 -0.081,0.048 -0.123,0.129 -0.039,0.078 -0.039,0.177 v 0.768 q 0,0.078 -0.051,0.132 -0.051,0.051 -0.129,0.051 -0.078,0 -0.129,-0.051 -0.051,-0.054 -0.051,-0.132 v -1.854 q 0,-0.078 0.051,-0.129 0.051,-0.054 0.129,-0.054 0.078,0 0.129,0.054 0.051,0.051 0.051,0.129 v 0.744 l -0.045,-0.009 q 0.027,-0.051 0.075,-0.108 0.048,-0.06 0.117,-0.111 0.069,-0.051 0.153,-0.081 0.084,-0.033 0.183,-0.033 z m 1.254002,1.452 q 0,0.078 -0.051,0.132 -0.051,0.051 -0.129,0.051 -0.078,0 -0.129,-0.051 -0.051,-0.054 -0.051,-0.132 v -1.239 q 0,-0.078 0.051,-0.129 0.051,-0.054 0.129,-0.054 0.078,0 0.129,0.054 0.051,0.051 0.051,0.129 z m -0.183,-1.617 q -0.102,0 -0.144,-0.033 -0.042,-0.033 -0.042,-0.117 v -0.057 q 0,-0.087 0.045,-0.117 0.048,-0.033 0.144,-0.033 0.105,0 0.147,0.033 0.042,0.033 0.042,0.117 v 0.057 q 0,0.087 -0.045,0.12 -0.045,0.03 -0.147,0.03 z m 1.266,0.165 q 0.171,0 0.297,0.036 0.129,0.036 0.198,0.102 0.072,0.063 0.072,0.153 0,0.06 -0.036,0.114 -0.036,0.051 -0.105,0.051 -0.048,0 -0.081,-0.012 -0.03,-0.015 -0.054,-0.036 -0.024,-0.021 -0.057,-0.039 -0.03,-0.018 -0.093,-0.027 -0.06,-0.012 -0.09,-0.012 -0.153,0 -0.261,0.066 -0.105,0.066 -0.162,0.18 -0.057,0.111 -0.057,0.258 0,0.144 0.057,0.258 0.06,0.111 0.162,0.177 0.105,0.066 0.24,0.066 0.075,0 0.129,-0.009 0.054,-0.009 0.09,-0.027 0.042,-0.024 0.075,-0.051 0.033,-0.027 0.099,-0.027 0.078,0 0.12,0.051 0.042,0.048 0.042,0.12 0,0.075 -0.084,0.138 -0.084,0.06 -0.222,0.099 -0.135,0.036 -0.294,0.036 -0.237,0 -0.411,-0.108 -0.174,-0.111 -0.27,-0.3 -0.093,-0.189 -0.093,-0.423 0,-0.246 0.099,-0.432 0.102,-0.189 0.279,-0.294 0.18,-0.108 0.411,-0.108 z m 1.689001,0 q 0.216,0 0.327,0.093 0.114,0.093 0.156,0.249 0.042,0.153 0.042,0.342 v 0.768 q 0,0.078 -0.051,0.132 -0.051,0.051 -0.129,0.051 -0.078,0 -0.129,-0.051 -0.051,-0.054 -0.051,-0.132 v -0.768 q 0,-0.099 -0.024,-0.177 -0.024,-0.081 -0.087,-0.129 -0.063,-0.048 -0.18,-0.048 -0.114,0 -0.195,0.048 -0.081,0.048 -0.123,0.129 -0.039,0.078 -0.039,0.177 v 0.768 q 0,0.078 -0.051,0.132 -0.051,0.051 -0.129,0.051 -0.078,0 -0.129,-0.051 -0.051,-0.054 -0.051,-0.132 v -1.854 q 0,-0.078 0.051,-0.129 0.051,-0.054 0.129,-0.054 0.078,0 0.129,0.054 0.051,0.051 0.051,0.129 v 0.744 l -0.045,-0.009 q 0.027,-0.051 0.075,-0.108 0.048,-0.06 0.117,-0.111 0.069,-0.051 0.153,-0.081 0.084,-0.033 0.183,-0.033 z m 3.069004,0 q 0.078,0 0.129,0.051 0.051,0.051 0.051,0.132 v 1.269 q 0,0.078 -0.051,0.132 -0.051,0.051 -0.129,0.051 -0.078,0 -0.129,-0.051 -0.051,-0.054 -0.051,-0.132 v -0.147 l 0.066,0.027 q 0,0.039 -0.042,0.096 -0.042,0.054 -0.114,0.108 -0.072,0.054 -0.171,0.093 -0.096,0.036 -0.21,0.036 -0.207,0 -0.375,-0.105 -0.168,-0.108 -0.267,-0.294 -0.096,-0.189 -0.096,-0.432 0,-0.246 0.096,-0.432 0.099,-0.189 0.264,-0.294 0.165,-0.108 0.366,-0.108 0.129,0 0.237,0.039 0.108,0.039 0.186,0.099 0.081,0.06 0.123,0.123 0.045,0.06 0.045,0.102 l -0.108,0.039 v -0.219 q 0,-0.078 0.051,-0.129 0.051,-0.054 0.129,-0.054 z m -0.606,1.335 q 0.132,0 0.231,-0.066 0.099,-0.066 0.153,-0.18 0.057,-0.114 0.057,-0.255 0,-0.144 -0.057,-0.258 -0.054,-0.114 -0.153,-0.18 -0.099,-0.066 -0.231,-0.066 -0.129,0 -0.228,0.066 -0.099,0.066 -0.156,0.18 -0.054,0.114 -0.054,0.258 0,0.141 0.054,0.255 0.057,0.114 0.156,0.18 0.099,0.066 0.228,0.066 z m 1.356,0.3 q -0.078,0 -0.129,-0.051 -0.051,-0.054 -0.051,-0.132 v -1.239 q 0,-0.078 0.051,-0.129 0.051,-0.054 0.129,-0.054 0.078,0 0.129,0.054 0.051,0.051 0.051,0.129 v 0.282 l -0.021,-0.201 q 0.033,-0.072 0.084,-0.126 0.054,-0.057 0.12,-0.093 0.066,-0.039 0.141,-0.057 0.075,-0.018 0.15,-0.018 0.09,0 0.15,0.051 0.063,0.051 0.063,0.12 0,0.099 -0.051,0.144 -0.051,0.042 -0.111,0.042 -0.057,0 -0.105,-0.021 -0.045,-0.021 -0.105,-0.021 -0.054,0 -0.111,0.027 -0.054,0.024 -0.102,0.078 -0.045,0.054 -0.075,0.135 -0.027,0.078 -0.027,0.186 v 0.711 q 0,0.078 -0.051,0.132 -0.051,0.051 -0.129,0.051 z m 1.812002,0.03 q -0.255,0 -0.444,-0.105 -0.186,-0.108 -0.288,-0.291 -0.099,-0.183 -0.099,-0.414 0,-0.27 0.108,-0.459 0.111,-0.192 0.288,-0.294 0.177,-0.102 0.375,-0.102 0.153,0 0.288,0.063 0.138,0.063 0.243,0.174 0.105,0.108 0.165,0.252 0.063,0.144 0.063,0.306 -0.003,0.072 -0.057,0.117 -0.054,0.045 -0.126,0.045 h -1.146 l -0.09,-0.3 h 1.101 l -0.066,0.06 v -0.081 q -0.006,-0.087 -0.063,-0.156 -0.054,-0.069 -0.138,-0.108 -0.081,-0.042 -0.174,-0.042 -0.09,0 -0.168,0.024 -0.078,0.024 -0.135,0.081 -0.057,0.057 -0.09,0.153 -0.033,0.096 -0.033,0.243 0,0.162 0.066,0.276 0.069,0.111 0.174,0.171 0.108,0.057 0.228,0.057 0.111,0 0.177,-0.018 0.066,-0.018 0.105,-0.042 0.042,-0.027 0.075,-0.045 0.054,-0.027 0.102,-0.027 0.066,0 0.108,0.045 0.045,0.045 0.045,0.105 0,0.081 -0.084,0.147 -0.078,0.066 -0.219,0.117 -0.141,0.048 -0.291,0.048 z"
       id="text7-0"
       aria-label="which are" />
    <path
       style="font-weight:bold;font-size:5px;line-height:1.25;font-family:Quicksand;-inkscape-font-specification:'Quicksand Bold';font-variant-ligatures:none;text-align:center;baseline-shift:baseline;text-anchor:middle;stroke-width:0.264583"
       d="m 76.412511,70.762832 q 0.115,0 0.22,0.09 0.105,0.085 0.105,0.235 0,0.045 -0.015,0.1 l -0.985,2.9 q -0.03,0.09 -0.11,0.14 -0.075,0.045 -0.16,0.05 -0.085,0 -0.17,-0.05 -0.08,-0.05 -0.125,-0.145 l -0.74,-1.68 0.045,0.03 -0.73,1.65 q -0.045,0.095 -0.13,0.145 -0.08,0.05 -0.165,0.05 -0.08,-0.005 -0.16,-0.05 -0.08,-0.05 -0.11,-0.14 l -0.985,-2.9 q -0.015,-0.055 -0.015,-0.1 0,-0.15 0.105,-0.235 0.11,-0.09 0.225,-0.09 0.095,0 0.175,0.05 0.085,0.05 0.115,0.145 l 0.795,2.41 -0.11,-0.005 0.71,-1.705 q 0.04,-0.09 0.115,-0.14 0.075,-0.055 0.17,-0.05 0.095,-0.005 0.17,0.05 0.075,0.05 0.11,0.14 l 0.65,1.63 -0.08,0.05 0.785,-2.38 q 0.03,-0.095 0.115,-0.145 0.085,-0.05 0.18,-0.05 z m 1.405004,3.21 q 0,0.13 -0.095,0.22 -0.095,0.085 -0.22,0.085 -0.14,0 -0.225,-0.085 -0.085,-0.09 -0.085,-0.22 v -2.89 q 0,-0.13 0.09,-0.215 0.09,-0.09 0.23,-0.09 0.12,0 0.21,0.09 0.095,0.085 0.095,0.215 z m 1.934998,0.305 q -0.14,0 -0.23,-0.085 -0.09,-0.09 -0.09,-0.22 v -2.9 h 0.65 v 2.9 q 0,0.13 -0.095,0.22 -0.09,0.085 -0.235,0.085 z m -1.105,-2.925 q -0.13,0 -0.22,-0.08 -0.085,-0.08 -0.085,-0.21 0,-0.13 0.085,-0.205 0.09,-0.08 0.22,-0.08 h 2.22 q 0.13,0 0.215,0.08 0.09,0.08 0.09,0.21 0,0.13 -0.09,0.21 -0.085,0.075 -0.215,0.075 z m 3.369998,-0.575 q 0.12,0 0.21,0.09 0.095,0.085 0.095,0.215 v 2.89 q 0,0.13 -0.095,0.22 -0.095,0.085 -0.22,0.085 -0.14,0 -0.225,-0.085 -0.085,-0.09 -0.085,-0.22 v -2.89 q 0,-0.13 0.09,-0.215 0.09,-0.09 0.23,-0.09 z m 2.215,0 q 0.14,0 0.225,0.09 0.085,0.085 0.085,0.215 v 2.89 q 0,0.13 -0.09,0.22 -0.085,0.085 -0.23,0.085 -0.12,0 -0.215,-0.085 -0.09,-0.09 -0.09,-0.22 v -2.89 q 0,-0.13 0.095,-0.215 0.095,-0.09 0.22,-0.09 z m -2.23,1.455 h 2.23 v 0.575 h -2.23 z m 3.914999,1.74 q 0,0.13 -0.095,0.22 -0.095,0.085 -0.22,0.085 -0.14,0 -0.225,-0.085 -0.085,-0.09 -0.085,-0.22 v -2.89 q 0,-0.13 0.09,-0.215 0.09,-0.09 0.23,-0.09 0.12,0 0.21,0.09 0.095,0.085 0.095,0.215 z m 3.404998,-3.195 q 0.12,0 0.195,0.08 0.075,0.08 0.075,0.2 v 2.915 q 0,0.13 -0.09,0.22 -0.085,0.085 -0.215,0.085 -0.065,0 -0.135,-0.02 -0.065,-0.025 -0.1,-0.065 l -1.965,-2.495 0.13,-0.08 v 2.38 q 0,0.12 -0.08,0.2 -0.075,0.08 -0.2,0.08 -0.12,0 -0.195,-0.08 -0.075,-0.08 -0.075,-0.2 v -2.915 q 0,-0.13 0.085,-0.215 0.09,-0.09 0.22,-0.09 0.07,0 0.145,0.03 0.075,0.025 0.11,0.08 l 1.905,2.43 -0.085,0.06 v -2.32 q 0,-0.12 0.075,-0.2 0.075,-0.08 0.2,-0.08 z"
       id="text7-0-2"
       aria-label="WITHIN" />
    <rect
       style="font-variation-settings:normal;vector-effect:none;fill:#009485;fill-opacity:0.16;fill-rule:evenodd;stroke:#009485;stroke-width:1;stroke-linecap:round;stroke-linejoin:round;stroke-miterlimit:4;stroke-dasharray:none;stroke-dashoffset:0;stroke-opacity:1;-inkscape-stroke:none;stop-color:#000000"
       id="rect8"
       width="19.564402"
       height="6.2489281"
       x="71.105309"
       y="58.26582" />
    <path
       style="font-weight:bold;font-size:5px;line-height:1.25;font-family:Quicksand;-inkscape-font-specification:'Quicksand Bold';font-variant-ligatures:none;text-align:center;baseline-shift:baseline;text-anchor:middle;stroke-width:0.264583"
       d="m 74.845004,63.190285 q -0.38,0 -0.71,-0.14 -0.33,-0.14 -0.58,-0.385 -0.25,-0.25 -0.395,-0.575 -0.14,-0.325 -0.14,-0.7 0,-0.375 0.14,-0.7 0.145,-0.325 0.395,-0.57 0.25,-0.25 0.58,-0.39 0.33,-0.14 0.71,-0.14 0.235,0 0.455,0.05 0.22,0.05 0.405,0.15 0.075,0.04 0.11,0.11 0.04,0.065 0.04,0.135 0,0.12 -0.08,0.215 -0.08,0.095 -0.205,0.095 -0.04,0 -0.085,-0.01 -0.04,-0.01 -0.08,-0.03 -0.125,-0.055 -0.265,-0.085 -0.14,-0.03 -0.295,-0.03 -0.325,0 -0.595,0.165 -0.265,0.16 -0.425,0.435 -0.155,0.27 -0.155,0.6 0,0.325 0.155,0.6 0.16,0.275 0.425,0.44 0.27,0.16 0.595,0.16 0.15,0 0.33,-0.03 0.18,-0.03 0.295,-0.08 l -0.045,0.15 v -0.855 l 0.085,0.075 h -0.555 q -0.13,0 -0.22,-0.085 -0.085,-0.085 -0.085,-0.215 0,-0.13 0.085,-0.215 0.09,-0.085 0.22,-0.085 h 0.82 q 0.13,0 0.215,0.09 0.085,0.085 0.085,0.215 v 1.06 q 0,0.1 -0.05,0.165 -0.045,0.065 -0.105,0.105 -0.23,0.14 -0.505,0.225 -0.27,0.08 -0.57,0.08 z m 2.189995,-0.05 q -0.14,0 -0.25,-0.085 -0.11,-0.09 -0.11,-0.22 v -2.89 q 0,-0.13 0.085,-0.215 0.09,-0.09 0.22,-0.09 h 1.44 q 0.26,0 0.485,0.14 0.23,0.135 0.37,0.38 0.14,0.24 0.14,0.555 0,0.19 -0.08,0.37 -0.075,0.18 -0.21,0.325 -0.13,0.145 -0.295,0.225 l 0.005,-0.115 q 0.14,0.075 0.23,0.18 0.095,0.1 0.145,0.22 0.055,0.115 0.065,0.25 0.02,0.125 0.025,0.22 0.01,0.095 0.03,0.16 0.025,0.065 0.09,0.1 0.11,0.065 0.135,0.19 0.03,0.12 -0.055,0.215 -0.055,0.065 -0.14,0.085 -0.085,0.015 -0.17,0 -0.085,-0.02 -0.14,-0.05 -0.085,-0.05 -0.17,-0.145 -0.085,-0.1 -0.14,-0.265 -0.05,-0.165 -0.05,-0.425 0,-0.085 -0.03,-0.155 -0.03,-0.075 -0.085,-0.125 -0.055,-0.055 -0.14,-0.08 -0.085,-0.03 -0.2,-0.03 h -1.01 l 0.075,-0.115 v 1.085 q 0,0.13 -0.07,0.22 -0.07,0.085 -0.195,0.085 z m 0.195,-1.79 h 1.165 q 0.09,0 0.175,-0.08 0.085,-0.085 0.14,-0.225 0.055,-0.145 0.055,-0.315 0,-0.22 -0.12,-0.365 -0.115,-0.15 -0.25,-0.15 h -1.155 l 0.06,-0.16 v 1.415 z m 3.185002,-1.71 h 1.675 q 0.13,0 0.215,0.085 0.09,0.08 0.09,0.21 0,0.125 -0.09,0.205 -0.085,0.075 -0.215,0.075 h -1.4 l 0.045,-0.085 v 0.975 l -0.04,-0.04 h 1.17 q 0.13,0 0.215,0.085 0.09,0.08 0.09,0.21 0,0.125 -0.09,0.205 -0.085,0.075 -0.215,0.075 h -1.155 l 0.025,-0.04 v 1.01 l -0.04,-0.045 h 1.395 q 0.13,0 0.215,0.09 0.09,0.085 0.09,0.2 0,0.125 -0.09,0.205 -0.085,0.08 -0.215,0.08 h -1.675 q -0.13,0 -0.22,-0.085 -0.085,-0.09 -0.085,-0.22 v -2.89 q 0,-0.13 0.085,-0.215 0.09,-0.09 0.22,-0.09 z m 2.860002,0 h 1.675 q 0.13,0 0.215,0.085 0.09,0.08 0.09,0.21 0,0.125 -0.09,0.205 -0.085,0.075 -0.215,0.075 h -1.4 l 0.045,-0.085 v 0.975 l -0.04,-0.04 h 1.17 q 0.13,0 0.215,0.085 0.09,0.08 0.09,0.21 0,0.125 -0.09,0.205 -0.085,0.075 -0.215,0.075 h -1.155 l 0.025,-0.04 v 1.01 l -0.04,-0.045 h 1.395 q 0.13,0 0.215,0.09 0.09,0.085 0.09,0.2 0,0.125 -0.09,0.205 -0.085,0.08 -0.215,0.08 h -1.675 q -0.13,0 -0.22,-0.085 -0.085,-0.09 -0.085,-0.22 v -2.89 q 0,-0.13 0.085,-0.215 0.09,-0.09 0.22,-0.09 z m 5.210003,0 q 0.12,0 0.195,0.08 0.075,0.08 0.075,0.2 v 2.915 q 0,0.13 -0.09,0.22 -0.085,0.085 -0.215,0.085 -0.065,0 -0.135,-0.02 -0.065,-0.025 -0.1,-0.065 l -1.965,-2.495 0.13,-0.08 v 2.38 q 0,0.12 -0.08,0.2 -0.075,0.08 -0.2,0.08 -0.12,0 -0.195,-0.08 -0.075,-0.08 -0.075,-0.2 v -2.915 q 0,-0.13 0.085,-0.215 0.09,-0.09 0.22,-0.09 0.07,0 0.145,0.03 0.075,0.025 0.11,0.08 l 1.905,2.43 -0.085,0.06 v -2.32 q 0,-0.12 0.075,-0.2 0.075,-0.08 0.2,-0.08 z"
       id="text7-1"
       aria-label="GREEN" />
    <rect
       style="font-variation-settings:normal;vector-effect:none;fill:#757575;fill-opacity:0.16;fill-rule:evenodd;stroke:#757575;stroke-width:1;stroke-linecap:round;stroke-linejoin:round;stroke-miterlimit:4;stroke-dasharray:none;stroke-dashoffset:0;stroke-opacity:1;-inkscape-stroke:none;stop-color:#000000"
       id="rect8-8"
       width="19.564402"
       height="6.2489281"
       x="71.105309"
       y="80.225487" />
    <path
       style="font-weight:bold;font-size:5px;line-height:1.25;font-family:Quicksand;-inkscape-font-specification:'Quicksand Bold';font-variant-ligatures:none;text-align:center;baseline-shift:baseline;text-anchor:middle;stroke-width:0.264583"
       d="m 76.472511,85.149953 q -0.38,0 -0.71,-0.14 -0.33,-0.14 -0.58,-0.385 -0.25,-0.25 -0.395,-0.575 -0.14,-0.325 -0.14,-0.7 0,-0.375 0.14,-0.7 0.145,-0.325 0.395,-0.57 0.25,-0.25 0.58,-0.39 0.33,-0.14 0.71,-0.14 0.235,0 0.455,0.05 0.22,0.05 0.405,0.15 0.075,0.04 0.11,0.11 0.04,0.065 0.04,0.135 0,0.12 -0.08,0.215 -0.08,0.095 -0.205,0.095 -0.04,0 -0.085,-0.01 -0.04,-0.01 -0.08,-0.03 -0.125,-0.055 -0.265,-0.085 -0.14,-0.03 -0.295,-0.03 -0.325,0 -0.595,0.165 -0.265,0.16 -0.425,0.435 -0.155,0.27 -0.155,0.6 0,0.325 0.155,0.6 0.16,0.275 0.425,0.44 0.27,0.16 0.595,0.16 0.15,0 0.33,-0.03 0.18,-0.03 0.295,-0.08 l -0.045,0.15 v -0.855 l 0.085,0.075 h -0.555 q -0.13,0 -0.22,-0.085 -0.085,-0.085 -0.085,-0.215 0,-0.13 0.085,-0.215 0.09,-0.085 0.22,-0.085 h 0.82 q 0.13,0 0.215,0.09 0.085,0.085 0.085,0.215 v 1.06 q 0,0.1 -0.05,0.165 -0.045,0.065 -0.105,0.105 -0.23,0.14 -0.505,0.225 -0.27,0.08 -0.57,0.08 z m 2.189995,-0.05 q -0.14,0 -0.25,-0.085 -0.11,-0.09 -0.11,-0.22 v -2.89 q 0,-0.13 0.085,-0.215 0.09,-0.09 0.22,-0.09 h 1.44 q 0.26,0 0.485,0.14 0.23,0.135 0.37,0.38 0.14,0.24 0.14,0.555 0,0.19 -0.08,0.37 -0.075,0.18 -0.21,0.325 -0.13,0.145 -0.295,0.225 l 0.005,-0.115 q 0.14,0.075 0.23,0.18 0.095,0.1 0.145,0.22 0.055,0.115 0.065,0.25 0.02,0.125 0.025,0.22 0.01,0.095 0.03,0.16 0.025,0.065 0.09,0.1 0.11,0.065 0.135,0.19 0.03,0.12 -0.055,0.215 -0.055,0.065 -0.14,0.085 -0.085,0.015 -0.17,0 -0.085,-0.02 -0.14,-0.05 -0.085,-0.05 -0.17,-0.145 -0.085,-0.1 -0.14,-0.265 -0.05,-0.165 -0.05,-0.425 0,-0.085 -0.03,-0.155 -0.03,-0.075 -0.085,-0.125 -0.055,-0.055 -0.14,-0.08 -0.085,-0.03 -0.2,-0.03 h -1.01 l 0.075,-0.115 v 1.085 q 0,0.13 -0.07,0.22 -0.07,0.085 -0.195,0.085 z m 0.195,-1.79 h 1.165 q 0.09,0 0.175,-0.08 0.085,-0.085 0.14,-0.225 0.055,-0.145 0.055,-0.315 0,-0.22 -0.12,-0.365 -0.115,-0.15 -0.25,-0.15 h -1.155 l 0.06,-0.16 v 1.415 z m 3.185002,-1.71 h 1.675 q 0.13,0 0.215,0.085 0.09,0.08 0.09,0.21 0,0.125 -0.09,0.205 -0.085,0.075 -0.215,0.075 h -1.4 l 0.045,-0.085 v 0.975 l -0.04,-0.04 h 1.17 q 0.13,0 0.215,0.085 0.09,0.08 0.09,0.21 0,0.125 -0.09,0.205 -0.085,0.075 -0.215,0.075 h -1.155 l 0.025,-0.04 v 1.01 l -0.04,-0.045 h 1.395 q 0.13,0 0.215,0.09 0.09,0.085 0.09,0.2 0,0.125 -0.09,0.205 -0.085,0.08 -0.215,0.08 h -1.675 q -0.13,0 -0.22,-0.085 -0.085,-0.09 -0.085,-0.22 v -2.89 q 0,-0.13 0.085,-0.215 0.09,-0.09 0.22,-0.09 z m 4.785002,-0.015 q 0.115,0 0.205,0.09 0.095,0.085 0.095,0.22 0,0.045 -0.015,0.095 -0.01,0.045 -0.04,0.09 l -1.135,1.625 0.09,-0.345 v 1.435 q 0,0.13 -0.09,0.22 -0.085,0.085 -0.2,0.085 -0.125,0 -0.215,-0.085 -0.085,-0.09 -0.085,-0.22 v -1.395 l 0.04,0.16 -1.08,-1.435 q -0.05,-0.065 -0.07,-0.125 -0.02,-0.06 -0.02,-0.11 0,-0.135 0.105,-0.22 0.105,-0.085 0.215,-0.085 0.14,0 0.245,0.14 l 0.96,1.325 -0.14,-0.02 0.885,-1.295 q 0.105,-0.15 0.25,-0.15 z"
       id="text8"
       aria-label="GREY" />
    <circle
       style="font-variation-settings:normal;opacity:1;vector-effect:none;fill:#009485;fill-opacity:1;fill-rule:evenodd;stroke:none;stroke-width:0.352777;stroke-linecap:butt;stroke-linejoin:miter;stroke-miterlimit:4;stroke-dasharray:none;stroke-dashoffset:0;stroke-opacity:1;-inkscape-stroke:none;stop-color:#000000;stop-opacity:1"
       id="path1"
       cx="36.261986"
       cy="74.79332"
       r="1" />
    <circle
       style="font-variation-settings:normal;vector-effect:none;fill:#009485;fill-opacity:1;fill-rule:evenodd;stroke:none;stroke-width:0.352777;stroke-linecap:butt;stroke-linejoin:miter;stroke-miterlimit:4;stroke-dasharray:none;stroke-dashoffset:0;stroke-opacity:1;-inkscape-stroke:none;stop-color:#000000"
       id="path1-4"
       cx="32.699028"
       cy="80.982666"
       r="1" />
    <circle
       style="font-variation-settings:normal;vector-effect:none;fill:#009485;fill-opacity:1;fill-rule:evenodd;stroke:none;stroke-width:0.352777;stroke-linecap:butt;stroke-linejoin:miter;stroke-miterlimit:4;stroke-dasharray:none;stroke-dashoffset:0;stroke-opacity:1;-inkscape-stroke:none;stop-color:#000000"
       id="path1-5"
       cx="45.399025"
       cy="75.426422"
       r="1" />
    <circle
       style="font-variation-settings:normal;vector-effect:none;fill:#009485;fill-opacity:1;fill-rule:evenodd;stroke:none;stroke-width:0.352777;stroke-linecap:butt;stroke-linejoin:miter;stroke-miterlimit:4;stroke-dasharray:none;stroke-dashoffset:0;stroke-opacity:1;-inkscape-stroke:none;stop-color:#000000"
       id="path1-1"
       cx="41.165695"
       cy="79.130585"
       r="1" />
    <circle
       style="font-variation-settings:normal;vector-effect:none;fill:#009485;fill-opacity:1;fill-rule:evenodd;stroke:none;stroke-width:0.352777;stroke-linecap:butt;stroke-linejoin:miter;stroke-miterlimit:4;stroke-dasharray:none;stroke-dashoffset:0;stroke-opacity:1;-inkscape-stroke:none;stop-color:#000000"
       id="path1-2"
       cx="35.093971"
       cy="85.370255"
       r="1" />
    <circle
       style="font-variation-settings:normal;vector-effect:none;fill:#009485;fill-opacity:1;fill-rule:evenodd;stroke:none;stroke-width:0.352777;stroke-linecap:butt;stroke-linejoin:miter;stroke-miterlimit:4;stroke-dasharray:none;stroke-dashoffset:0;stroke-opacity:1;-inkscape-stroke:none;stop-color:#000000"
       id="path1-2-7"
       cx="21.500002"
       cy="93.500145"
       r="1" />
    <circle
       style="font-variation-settings:normal;vector-effect:none;fill:#009485;fill-opacity:1;fill-rule:evenodd;stroke:none;stroke-width:0.352777;stroke-linecap:butt;stroke-linejoin:miter;stroke-miterlimit:4;stroke-dasharray:none;stroke-dashoffset:0;stroke-opacity:1;-inkscape-stroke:none;stop-color:#000000"
       id="path1-28"
       cx="44.093681"
       cy="85.771515"
       r="1" />
    <circle
       style="font-variation-settings:normal;vector-effect:none;fill:#009485;fill-opacity:1;fill-rule:evenodd;stroke:none;stroke-width:0.352777;stroke-linecap:butt;stroke-linejoin:miter;stroke-miterlimit:4;stroke-dasharray:none;stroke-dashoffset:0;stroke-opacity:1;-inkscape-stroke:none;stop-color:#000000"
       id="path1-54"
       cx="53.865692"
       cy="86.274338"
       r="1" />
    <circle
       style="font-variation-settings:normal;vector-effect:none;fill:#009485;fill-opacity:1;fill-rule:evenodd;stroke:none;stroke-width:0.352777;stroke-linecap:butt;stroke-linejoin:miter;stroke-miterlimit:4;stroke-dasharray:none;stroke-dashoffset:0;stroke-opacity:1;-inkscape-stroke:none;stop-color:#000000"
       id="path1-8"
       cx="49.632362"
       cy="81.247253"
       r="1" />
    <circle
       style="font-variation-settings:normal;vector-effect:none;fill:#009485;fill-opacity:1;fill-rule:evenodd;stroke:none;stroke-width:0.352777;stroke-linecap:butt;stroke-linejoin:miter;stroke-miterlimit:4;stroke-dasharray:none;stroke-dashoffset:0;stroke-opacity:1;-inkscape-stroke:none;stop-color:#000000"
       id="path1-15"
       cx="57.569862"
       cy="74.1035"
       r="1" />
    <circle
       style="font-variation-settings:normal;vector-effect:none;fill:#009485;fill-opacity:1;fill-rule:evenodd;stroke:none;stroke-width:0.352777;stroke-linecap:butt;stroke-linejoin:miter;stroke-miterlimit:4;stroke-dasharray:none;stroke-dashoffset:0;stroke-opacity:1;-inkscape-stroke:none;stop-color:#000000"
       id="path1-9"
       cx="55.982361"
       cy="67.753494"
       r="1" />
    <circle
       style="font-variation-settings:normal;vector-effect:none;fill:#009485;fill-opacity:1;fill-rule:evenodd;stroke:none;stroke-width:0.352777;stroke-linecap:butt;stroke-linejoin:miter;stroke-miterlimit:4;stroke-dasharray:none;stroke-dashoffset:0;stroke-opacity:1;-inkscape-stroke:none;stop-color:#000000"
       id="path1-87"
       cx="51.219856"
       cy="67.753494"
       r="1" />
    <circle
       style="font-variation-settings:normal;vector-effect:none;fill:#009485;fill-opacity:1;fill-rule:evenodd;stroke:none;stroke-width:0.352777;stroke-linecap:butt;stroke-linejoin:miter;stroke-miterlimit:4;stroke-dasharray:none;stroke-dashoffset:0;stroke-opacity:1;-inkscape-stroke:none;stop-color:#000000"
       id="path1-92"
       cx="49.367775"
       cy="63.255585"
       r="1" />
    <circle
       style="font-variation-settings:normal;vector-effect:none;fill:#009485;fill-opacity:1;fill-rule:evenodd;stroke:none;stroke-width:0.352777;stroke-linecap:butt;stroke-linejoin:miter;stroke-miterlimit:4;stroke-dasharray:none;stroke-dashoffset:0;stroke-opacity:1;-inkscape-stroke:none;stop-color:#000000"
       id="path1-0"
       cx="54.394859"
       cy="60.080585"
       r="1" />
    <circle
       style="font-variation-settings:normal;vector-effect:none;fill:#009485;fill-opacity:1;fill-rule:evenodd;stroke:none;stroke-width:0.352777;stroke-linecap:butt;stroke-linejoin:miter;stroke-miterlimit:4;stroke-dasharray:none;stroke-dashoffset:0;stroke-opacity:1;-inkscape-stroke:none;stop-color:#000000"
       id="path1-84"
       cx="55.717773"
       cy="53.995167"
       r="1" />
    <circle
       style="font-variation-settings:normal;vector-effect:none;fill:#009485;fill-opacity:1;fill-rule:evenodd;stroke:none;stroke-width:0.352777;stroke-linecap:butt;stroke-linejoin:miter;stroke-miterlimit:4;stroke-dasharray:none;stroke-dashoffset:0;stroke-opacity:1;-inkscape-stroke:none;stop-color:#000000"
       id="path1-280"
       cx="50.426109"
       cy="56.111835"
       r="1" />
    <circle
       style="font-variation-settings:normal;vector-effect:none;fill:#009485;fill-opacity:1;fill-rule:evenodd;stroke:none;stroke-width:0.352777;stroke-linecap:butt;stroke-linejoin:miter;stroke-miterlimit:4;stroke-dasharray:none;stroke-dashoffset:0;stroke-opacity:1;-inkscape-stroke:none;stop-color:#000000"
       id="path1-05"
       cx="44.076111"
       cy="53.995167"
       r="1" />
    <circle
       style="font-variation-settings:normal;vector-effect:none;fill:#009485;fill-opacity:1;fill-rule:evenodd;stroke:none;stroke-width:0.352777;stroke-linecap:butt;stroke-linejoin:miter;stroke-miterlimit:4;stroke-dasharray:none;stroke-dashoffset:0;stroke-opacity:1;-inkscape-stroke:none;stop-color:#000000"
       id="path1-11"
       cx="41.430275"
       cy="58.757668"
       r="1" />
    <circle
       style="font-variation-settings:normal;vector-effect:none;fill:#009485;fill-opacity:1;fill-rule:evenodd;stroke:none;stroke-width:0.352777;stroke-linecap:butt;stroke-linejoin:miter;stroke-miterlimit:4;stroke-dasharray:none;stroke-dashoffset:0;stroke-opacity:1;-inkscape-stroke:none;stop-color:#000000"
       id="path1-57"
       cx="37.990692"
       cy="63.784752"
       r="1" />
    <circle
       style="font-variation-settings:normal;vector-effect:none;fill:#009485;fill-opacity:1;fill-rule:evenodd;stroke:none;stroke-width:0.352777;stroke-linecap:butt;stroke-linejoin:miter;stroke-miterlimit:4;stroke-dasharray:none;stroke-dashoffset:0;stroke-opacity:1;-inkscape-stroke:none;stop-color:#000000"
       id="path1-875"
       cx="32.169861"
       cy="66.959747"
       r="1" />
    <circle
       style="font-variation-settings:normal;vector-effect:none;fill:#009485;fill-opacity:1;fill-rule:evenodd;stroke:none;stroke-width:0.352777;stroke-linecap:butt;stroke-linejoin:miter;stroke-miterlimit:4;stroke-dasharray:none;stroke-dashoffset:0;stroke-opacity:1;-inkscape-stroke:none;stop-color:#000000"
       id="path1-48"
       cx="25.555275"
       cy="71.457672"
       r="1" />
    <circle
       style="font-variation-settings:normal;vector-effect:none;fill:#009485;fill-opacity:1;fill-rule:evenodd;stroke:none;stroke-width:0.352777;stroke-linecap:butt;stroke-linejoin:miter;stroke-miterlimit:4;stroke-dasharray:none;stroke-dashoffset:0;stroke-opacity:1;-inkscape-stroke:none;stop-color:#000000"
       id="path1-89"
       cx="24.496943"
       cy="63.784752"
       r="1" />
    <circle
       style="font-variation-settings:normal;vector-effect:none;fill:#009485;fill-opacity:1;fill-rule:evenodd;stroke:none;stroke-width:0.352777;stroke-linecap:butt;stroke-linejoin:miter;stroke-miterlimit:4;stroke-dasharray:none;stroke-dashoffset:0;stroke-opacity:1;-inkscape-stroke:none;stop-color:#000000"
       id="path1-91"
       cx="34.551109"
       cy="59.022251"
       r="1" />
    <circle
       style="font-variation-settings:normal;vector-effect:none;fill:#009485;fill-opacity:1;fill-rule:evenodd;stroke:none;stroke-width:0.352777;stroke-linecap:butt;stroke-linejoin:miter;stroke-miterlimit:4;stroke-dasharray:none;stroke-dashoffset:0;stroke-opacity:1;-inkscape-stroke:none;stop-color:#000000"
       id="path1-43"
       cx="27.40736"
       cy="55.053501"
       r="1" />
    <circle
       style="font-variation-settings:normal;vector-effect:none;fill:#009485;fill-opacity:1;fill-rule:evenodd;stroke:none;stroke-width:0.352777;stroke-linecap:butt;stroke-linejoin:miter;stroke-miterlimit:4;stroke-dasharray:none;stroke-dashoffset:0;stroke-opacity:1;-inkscape-stroke:none;stop-color:#000000"
       id="path1-7"
       cx="35.080276"
       cy="53.995167"
       r="1" />
    <path
       d="m 26.593002,92.450148 q 0.072,0 0.117,0.048 0.045,0.048 0.045,0.12 v 1.749 q 0,0.078 -0.054,0.132 -0.051,0.051 -0.129,0.051 -0.039,0 -0.081,-0.012 -0.039,-0.015 -0.06,-0.039 l -1.179,-1.497 0.078,-0.048 v 1.428 q 0,0.072 -0.048,0.12 -0.045,0.048 -0.12,0.048 -0.072,0 -0.117,-0.048 -0.045,-0.048 -0.045,-0.12 v -1.749 q 0,-0.078 0.051,-0.129 0.054,-0.054 0.132,-0.054 0.042,0 0.087,0.018 0.045,0.015 0.066,0.048 l 1.143,1.458 -0.051,0.036 v -1.392 q 0,-0.072 0.045,-0.12 0.045,-0.048 0.12,-0.048 z m 0.795001,0 h 1.005 q 0.078,0 0.129,0.051 0.054,0.048 0.054,0.126 0,0.075 -0.054,0.123 -0.051,0.045 -0.129,0.045 h -0.84 l 0.027,-0.051 v 0.585 l -0.024,-0.024 h 0.702 q 0.078,0 0.129,0.051 0.054,0.048 0.054,0.126 0,0.075 -0.054,0.123 -0.051,0.045 -0.129,0.045 h -0.693 l 0.015,-0.024 v 0.606 l -0.024,-0.027 h 0.837 q 0.078,0 0.129,0.054 0.054,0.051 0.054,0.12 0,0.075 -0.054,0.123 -0.051,0.048 -0.129,0.048 h -1.005 q -0.078,0 -0.132,-0.051 -0.051,-0.054 -0.051,-0.132 v -1.734 q 0,-0.078 0.051,-0.129 0.054,-0.054 0.132,-0.054 z m 1.722002,-0.003 q 0.042,0 0.087,0.024 0.048,0.021 0.072,0.057 l 0.729,1.122 -0.15,-0.006 0.747,-1.116 q 0.057,-0.081 0.147,-0.081 0.072,0 0.129,0.051 0.057,0.051 0.057,0.132 v 1.737 q 0,0.078 -0.051,0.132 -0.051,0.051 -0.135,0.051 -0.084,0 -0.138,-0.051 -0.051,-0.054 -0.051,-0.132 v -1.413 l 0.117,0.027 -0.612,0.933 q -0.027,0.033 -0.069,0.057 -0.039,0.024 -0.081,0.021 -0.039,0.003 -0.081,-0.021 -0.039,-0.024 -0.066,-0.057 l -0.573,-0.906 0.078,-0.159 v 1.518 q 0,0.078 -0.048,0.132 -0.048,0.051 -0.126,0.051 -0.075,0 -0.123,-0.051 -0.048,-0.054 -0.048,-0.132 v -1.737 q 0,-0.075 0.054,-0.129 0.057,-0.054 0.135,-0.054 z m 4.200001,1.053 q 0,0.225 -0.075,0.42 -0.075,0.195 -0.213,0.345 -0.135,0.147 -0.324,0.231 -0.186,0.084 -0.408,0.084 -0.222,0 -0.408,-0.084 -0.186,-0.084 -0.324,-0.231 -0.135,-0.15 -0.21,-0.345 -0.075,-0.195 -0.075,-0.42 0,-0.225 0.075,-0.42 0.075,-0.195 0.21,-0.342 0.138,-0.15 0.324,-0.234 0.186,-0.084 0.408,-0.084 0.222,0 0.408,0.084 0.189,0.084 0.324,0.234 0.138,0.147 0.213,0.342 0.075,0.195 0.075,0.42 z m -0.39,0 q 0,-0.201 -0.081,-0.363 -0.081,-0.165 -0.222,-0.261 -0.141,-0.096 -0.327,-0.096 -0.186,0 -0.327,0.096 -0.141,0.096 -0.222,0.258 -0.078,0.162 -0.078,0.366 0,0.201 0.078,0.366 0.081,0.162 0.222,0.258 0.141,0.096 0.327,0.096 0.186,0 0.327,-0.096 0.141,-0.096 0.222,-0.258 0.081,-0.165 0.081,-0.366 z m 2.205002,-0.948 q 0.078,0.039 0.09,0.123 0.015,0.084 -0.042,0.153 -0.039,0.054 -0.102,0.06 -0.06,0.006 -0.123,-0.024 -0.072,-0.033 -0.153,-0.051 -0.078,-0.018 -0.165,-0.018 -0.162,0 -0.291,0.051 -0.126,0.051 -0.216,0.147 -0.09,0.093 -0.138,0.222 -0.045,0.129 -0.045,0.285 0,0.183 0.051,0.318 0.054,0.135 0.147,0.225 0.093,0.09 0.219,0.135 0.126,0.042 0.273,0.042 0.081,0 0.162,-0.015 0.081,-0.015 0.156,-0.054 0.063,-0.03 0.123,-0.021 0.063,0.009 0.105,0.063 0.06,0.075 0.042,0.156 -0.015,0.078 -0.09,0.114 -0.078,0.039 -0.162,0.066 -0.081,0.024 -0.165,0.036 -0.084,0.015 -0.171,0.015 -0.216,0 -0.411,-0.069 -0.192,-0.069 -0.345,-0.204 -0.15,-0.135 -0.237,-0.336 -0.087,-0.204 -0.087,-0.471 0,-0.231 0.078,-0.426 0.081,-0.195 0.225,-0.336 0.147,-0.144 0.345,-0.222 0.198,-0.081 0.432,-0.081 0.132,0 0.258,0.03 0.126,0.03 0.237,0.087 z m 2.004002,-0.102 q 0.072,0 0.117,0.048 0.045,0.048 0.045,0.12 v 1.749 q 0,0.078 -0.054,0.132 -0.051,0.051 -0.129,0.051 -0.039,0 -0.081,-0.012 -0.039,-0.015 -0.06,-0.039 l -1.179,-1.497 0.078,-0.048 v 1.428 q 0,0.072 -0.048,0.12 -0.045,0.048 -0.12,0.048 -0.072,0 -0.117,-0.048 -0.045,-0.048 -0.045,-0.12 v -1.749 q 0,-0.078 0.051,-0.129 0.054,-0.054 0.132,-0.054 0.042,0 0.087,0.018 0.045,0.015 0.066,0.048 l 1.143,1.458 -0.051,0.036 v -1.392 q 0,-0.072 0.045,-0.12 0.045,-0.048 0.12,-0.048 z m 0.987002,1.917 q 0,0.078 -0.057,0.132 -0.057,0.051 -0.132,0.051 -0.084,0 -0.135,-0.051 -0.051,-0.054 -0.051,-0.132 v -1.734 q 0,-0.078 0.054,-0.129 0.054,-0.054 0.138,-0.054 0.072,0 0.126,0.054 0.057,0.051 0.057,0.129 z m 1.919999,-1.815 q 0.078,0.039 0.09,0.123 0.015,0.084 -0.042,0.153 -0.039,0.054 -0.102,0.06 -0.06,0.006 -0.123,-0.024 -0.072,-0.033 -0.153,-0.051 -0.078,-0.018 -0.165,-0.018 -0.162,0 -0.291,0.051 -0.126,0.051 -0.216,0.147 -0.09,0.093 -0.138,0.222 -0.045,0.129 -0.045,0.285 0,0.183 0.051,0.318 0.054,0.135 0.147,0.225 0.093,0.09 0.219,0.135 0.126,0.042 0.273,0.042 0.081,0 0.162,-0.015 0.081,-0.015 0.156,-0.054 0.063,-0.03 0.123,-0.021 0.063,0.009 0.105,0.063 0.06,0.075 0.042,0.156 -0.015,0.078 -0.09,0.114 -0.078,0.039 -0.162,0.066 -0.081,0.024 -0.165,0.036 -0.084,0.015 -0.171,0.015 -0.216,0 -0.411,-0.069 -0.192,-0.069 -0.345,-0.204 -0.15,-0.135 -0.237,-0.336 -0.087,-0.204 -0.087,-0.471 0,-0.231 0.078,-0.426 0.081,-0.195 0.225,-0.336 0.147,-0.144 0.345,-0.222 0.198,-0.081 0.432,-0.081 0.132,0 0.258,0.03 0.126,0.03 0.237,0.087 z m 0.594002,-0.102 h 1.005 q 0.078,0 0.129,0.051 0.054,0.048 0.054,0.126 0,0.075 -0.054,0.123 -0.051,0.045 -0.129,0.045 h -0.84 l 0.027,-0.051 v 0.585 l -0.024,-0.024 h 0.702 q 0.078,0 0.129,0.051 0.054,0.048 0.054,0.126 0,0.075 -0.054,0.123 -0.051,0.045 -0.129,0.045 h -0.693 l 0.015,-0.024 v 0.606 l -0.024,-0.027 h 0.837 q 0.078,0 0.129,0.054 0.054,0.051 0.054,0.12 0,0.075 -0.054,0.123 -0.051,0.048 -0.129,0.048 h -1.005 q -0.078,0 -0.132,-0.051 -0.051,-0.054 -0.051,-0.132 v -1.734 q 0,-0.078 0.051,-0.129 0.054,-0.054 0.132,-0.054 z"
       id="text7-4"
       style="font-weight:bold;font-size:3px;line-height:1.25;font-family:Quicksand;-inkscape-font-specification:'Quicksand Bold';font-variant-ligatures:none;stroke-width:0.264583"
       aria-label="NEMOCNICE" />
    <path
       d="m 26.446002,99.535141 q -0.084,0 -0.135,-0.069 l -0.693,-0.912 0.273,-0.279 0.717,0.948 q 0.042,0.057 0.042,0.123 0,0.084 -0.063,0.138 -0.063,0.051 -0.141,0.051 z m 0.036,-2.115 q 0.072,0 0.117,0.06 0.048,0.057 0.048,0.117 0,0.063 -0.054,0.117 l -1.257,1.203 -0.015,-0.429 1.014,-0.999 q 0.069,-0.069 0.147,-0.069 z m -1.296,2.115 q -0.084,0 -0.135,-0.051 -0.051,-0.054 -0.051,-0.132 v -1.734 q 0,-0.078 0.054,-0.129 0.054,-0.054 0.138,-0.054 0.084,0 0.132,0.054 0.051,0.051 0.051,0.129 v 1.734 q 0,0.078 -0.051,0.132 -0.051,0.051 -0.138,0.051 z m 1.995002,0 q -0.084,0 -0.15,-0.051 -0.066,-0.054 -0.066,-0.132 v -1.734 q 0,-0.078 0.051,-0.129 0.054,-0.054 0.132,-0.054 h 0.864 q 0.156,0 0.291,0.084 0.138,0.081 0.222,0.228 0.084,0.144 0.084,0.333 0,0.114 -0.048,0.222 -0.045,0.108 -0.126,0.195 -0.078,0.087 -0.177,0.135 l 0.003,-0.069 q 0.084,0.045 0.138,0.108 0.057,0.06 0.087,0.132 0.033,0.069 0.039,0.15 0.012,0.075 0.015,0.132 0.006,0.057 0.018,0.096 0.015,0.039 0.054,0.06 0.066,0.039 0.081,0.114 0.018,0.072 -0.033,0.129 -0.033,0.039 -0.084,0.051 -0.051,0.009 -0.102,0 -0.051,-0.012 -0.084,-0.03 -0.051,-0.03 -0.102,-0.087 -0.051,-0.06 -0.084,-0.159 -0.03,-0.099 -0.03,-0.255 0,-0.051 -0.018,-0.093 -0.018,-0.045 -0.051,-0.075 -0.033,-0.033 -0.084,-0.048 -0.051,-0.018 -0.12,-0.018 h -0.606 l 0.045,-0.069 v 0.651 q 0,0.078 -0.042,0.132 -0.042,0.051 -0.117,0.051 z m 0.117,-1.074 h 0.699 q 0.054,0 0.105,-0.048 0.051,-0.051 0.084,-0.135 0.033,-0.087 0.033,-0.189 0,-0.132 -0.072,-0.219 -0.069,-0.09 -0.15,-0.09 h -0.693 l 0.036,-0.096 v 0.849 z m 2.499,-0.555 -0.648,1.524 q -0.021,0.057 -0.066,0.09 -0.042,0.03 -0.093,0.03 -0.081,0 -0.12,-0.045 -0.039,-0.045 -0.039,-0.111 0,-0.027 0.009,-0.057 l 0.747,-1.794 q 0.024,-0.06 0.072,-0.093 0.051,-0.033 0.108,-0.027 0.054,0 0.099,0.033 0.048,0.03 0.069,0.087 l 0.738,1.758 q 0.015,0.039 0.015,0.072 0,0.081 -0.054,0.129 -0.051,0.048 -0.114,0.048 -0.054,0 -0.099,-0.033 -0.042,-0.033 -0.066,-0.09 l -0.645,-1.503 z m -0.555,1.158 0.165,-0.345 h 0.81 l 0.057,0.345 z m 2.19,0.501 q -0.171,0 -0.318,-0.069 -0.147,-0.069 -0.24,-0.198 -0.036,-0.054 -0.036,-0.105 0,-0.075 0.057,-0.126 0.06,-0.051 0.117,-0.051 0.045,0 0.087,0.027 0.045,0.027 0.081,0.063 0.06,0.054 0.117,0.078 0.06,0.021 0.135,0.021 0.09,0 0.168,-0.045 0.078,-0.045 0.126,-0.12 0.048,-0.075 0.048,-0.162 v -1.26 q 0,-0.078 0.057,-0.129 0.057,-0.054 0.132,-0.054 0.084,0 0.135,0.054 0.051,0.051 0.051,0.129 v 1.26 q 0,0.183 -0.096,0.339 -0.096,0.156 -0.258,0.252 -0.162,0.096 -0.363,0.096 z"
       id="text2"
       style="font-weight:bold;font-size:3px;line-height:1.25;font-family:Quicksand;-inkscape-font-specification:'Quicksand Bold';font-variant-ligatures:none;stroke-width:0.264583"
       aria-label="KRAJ" />
    <rect
       style="font-variation-settings:normal;opacity:1;vector-effect:none;fill:#757575;fill-opacity:0.16;fill-rule:evenodd;stroke:#757575;stroke-width:0.999999;stroke-linecap:round;stroke-linejoin:round;stroke-miterlimit:4;stroke-dasharray:none;stroke-dashoffset:0;stroke-opacity:1;-inkscape-stroke:none;stop-color:#000000;stop-opacity:1"
       id="rect3"
       width="3"
       height="3"
       x="20.000002"
       y="97.000145" />
  </g>
</svg>
